<svg fill="#000000" height="20px" width="20px" version="1.1" id="Layer_1" xmlns="http://www.w3.org/2000/svg" xmlns:xlink="http://www.w3.org/1999/xlink" viewBox="0 0 12.8 12.8" enable-background="new 0 0 512 512" xml:space="preserve"><path d="M6.4 0C2.865 0 0 2.865 0 6.4s2.865 6.4 6.4 6.4 6.4 -2.865 6.4 -6.4S9.935 0 6.4 0m3.733 6.933c0 0.295 -0.238 0.533 -0.533 0.533h-2.132V9.6c0 0.295 -0.238 0.533 -0.533 0.533h-1.068c-0.295 0 -0.533 -0.24 -0.533 -0.533v-2.132H3.2c-0.295 0 -0.533 -0.24 -0.533 -0.533v-1.068c0 -0.295 0.238 -0.533 0.533 -0.533h2.132V3.2c0 -0.295 0.238 -0.533 0.533 -0.533h1.068c0.295 0 0.533 0.24 0.533 0.533v2.132H9.6c0.295 0 0.533 0.24 0.533 0.533z"/></svg>