<svg fill="#808080" xmlns="http://www.w3.org/2000/svg" viewBox="0 0 25 25" width="25" height="25" enable-background="new 0 0 52 52" xml:space="preserve"><path d="M23.077 4.567c0 -0.385 -0.337 -0.721 -0.721 -0.721h-19.712C2.26 3.846 1.923 4.183 1.923 4.567v1.442c0 0.385 0.337 0.721 0.721 0.721h19.712c0.385 0 0.721 -0.337 0.721 -0.721z"/><path d="M23.077 18.99c0 -0.385 -0.337 -0.721 -0.721 -0.721h-19.712c-0.385 0 -0.721 0.337 -0.721 0.721v1.442c0 0.385 0.337 0.721 0.721 0.721h19.712c0.385 0 0.721 -0.337 0.721 -0.721z"/><path d="M16.587 13.942c0.385 0 0.721 -0.337 0.721 -0.721v-1.442c0 -0.385 -0.337 -0.721 -0.721 -0.721h-8.173c-0.385 0 -0.721 0.337 -0.721 0.721v1.442c0 0.385 0.337 0.721 0.721 0.721z"/></svg>