<svg fill="grey" width="20px" height="20px" viewBox="0 0 0.6 0.6" xmlns="http://www.w3.org/2000/svg"><path d="M0.543 0.363 0.48 0.3a0.025 0.025 0 0 0 -0.035 0L0.375 0.371 0.305 0.3a0.025 0.025 0 0 0 -0.035 0L0.213 0.359 0.155 0.3a0.025 0.025 0 0 0 -0.035 0l-0.063 0.063a0.025 0.025 0 0 0 -0.005 0.008 0.025 0.025 0 0 0 -0.002 0.01V0.475a0.075 0.075 0 0 0 0.075 0.075h0.35a0.075 0.075 0 0 0 0.075 -0.075v-0.094a0.025 0.025 0 0 0 -0.002 -0.01 0.025 0.025 0 0 0 -0.005 -0.008M0.5 0.475a0.025 0.025 0 0 1 -0.025 0.025H0.125a0.025 0.025 0 0 1 -0.025 -0.025v-0.084l0.038 -0.038 0.057 0.057a0.025 0.025 0 0 0 0.035 0l0.057 -0.057L0.357 0.425a0.025 0.025 0 0 0 0.035 0l0.07 -0.07 0.038 0.038ZM0.475 0.05H0.125a0.075 0.075 0 0 0 -0.075 0.075v0.132a0.03 0.03 0 0 0 0 0.007v0.003a0.025 0.025 0 0 0 0.042 0.008L0.138 0.229l0.057 0.057a0.025 0.025 0 0 0 0.035 0l0.057 -0.057L0.357 0.3a0.025 0.025 0 0 0 0.035 0l0.07 -0.07 0.044 0.045a0.025 0.025 0 0 0 0.042 -0.008 0.007 0.007 0 0 0 0 -0.002 0.023 0.023 0 0 0 0.002 -0.007V0.125A0.075 0.075 0 0 0 0.475 0.05m0.025 0.146L0.48 0.175a0.025 0.025 0 0 0 -0.035 0L0.375 0.246 0.305 0.175a0.025 0.025 0 0 0 -0.035 0L0.213 0.234 0.155 0.175a0.025 0.025 0 0 0 -0.035 0L0.1 0.196V0.125a0.025 0.025 0 0 1 0.025 -0.025h0.35a0.025 0.025 0 0 1 0.025 0.025Z"/></svg>