<svg fill="#000000" width="20px" height="20px" viewBox="0 0 0.6 0.6" xmlns="http://www.w3.org/2000/svg"><path d="M0.1 0.3a0.025 0.025 0 0 0 0.025 0.025h0.19l-0.057 0.057a0.025 0.025 0 0 0 0 0.035 0.025 0.025 0 0 0 0.035 0l0.1 -0.1a0.025 0.025 0 0 0 0.005 -0.008 0.025 0.025 0 0 0 0 -0.019 0.025 0.025 0 0 0 -0.005 -0.008l-0.1 -0.1a0.025 0.025 0 1 0 -0.035 0.035l0.057 0.057H0.125a0.025 0.025 0 0 0 -0.025 0.025M0.425 0.05H0.175a0.075 0.075 0 0 0 -0.075 0.075v0.075a0.025 0.025 0 0 0 0.05 0V0.125a0.025 0.025 0 0 1 0.025 -0.025h0.25a0.025 0.025 0 0 1 0.025 0.025v0.35a0.025 0.025 0 0 1 -0.025 0.025H0.175a0.025 0.025 0 0 1 -0.025 -0.025v-0.075a0.025 0.025 0 0 0 -0.05 0v0.075a0.075 0.075 0 0 0 0.075 0.075h0.25a0.075 0.075 0 0 0 0.075 -0.075V0.125a0.075 0.075 0 0 0 -0.075 -0.075"/></svg>